<mxfile host="app.diagrams.net" modified="2023-12-29T03:30:41.516Z" agent="Mozilla/5.0 (Windows NT 10.0; Win64; x64) AppleWebKit/537.36 (KHTML, like Gecko) Chrome/120.0.0.0 Safari/537.36" etag="xW2sczGBCfJ9j9bRUgkS" version="22.1.15" type="github">
  <diagram name="페이지-1" id="UE4uojKZdf_KRIgSddeS">
    <mxGraphModel dx="1434" dy="780" grid="1" gridSize="10" guides="1" tooltips="1" connect="1" arrows="1" fold="1" page="1" pageScale="1" pageWidth="827" pageHeight="1169" math="0" shadow="0">
      <root>
        <mxCell id="0" />
        <mxCell id="1" parent="0" />
        <mxCell id="LULFfs4jDfS_0ZK98w6w-1" value="비회원" style="shape=umlActor;verticalLabelPosition=bottom;verticalAlign=top;html=1;outlineConnect=0;" parent="1" vertex="1">
          <mxGeometry x="70" y="232.5" width="30" height="60" as="geometry" />
        </mxCell>
        <mxCell id="LULFfs4jDfS_0ZK98w6w-2" value="회원" style="shape=umlActor;verticalLabelPosition=bottom;verticalAlign=top;html=1;outlineConnect=0;" parent="1" vertex="1">
          <mxGeometry x="70" y="500" width="30" height="60" as="geometry" />
        </mxCell>
        <mxCell id="LULFfs4jDfS_0ZK98w6w-3" value="관리자" style="shape=umlActor;verticalLabelPosition=bottom;verticalAlign=top;html=1;outlineConnect=0;" parent="1" vertex="1">
          <mxGeometry x="750" y="350" width="30" height="60" as="geometry" />
        </mxCell>
        <mxCell id="LULFfs4jDfS_0ZK98w6w-4" value="&amp;nbsp;MBTI&lt;br&gt;system" style="shape=umlFrame;whiteSpace=wrap;html=1;pointerEvents=0;" parent="1" vertex="1">
          <mxGeometry x="140" y="120" width="580" height="690" as="geometry" />
        </mxCell>
        <mxCell id="LULFfs4jDfS_0ZK98w6w-7" value="회원가입" style="ellipse;whiteSpace=wrap;html=1;" parent="1" vertex="1">
          <mxGeometry x="220" y="160" width="70" height="50" as="geometry" />
        </mxCell>
        <mxCell id="LULFfs4jDfS_0ZK98w6w-8" value="회원수정" style="ellipse;whiteSpace=wrap;html=1;" parent="1" vertex="1">
          <mxGeometry x="220" y="410" width="70" height="50" as="geometry" />
        </mxCell>
        <mxCell id="LULFfs4jDfS_0ZK98w6w-11" value="회원탈퇴" style="ellipse;whiteSpace=wrap;html=1;" parent="1" vertex="1">
          <mxGeometry x="220" y="490" width="70" height="50" as="geometry" />
        </mxCell>
        <mxCell id="LULFfs4jDfS_0ZK98w6w-12" value="회원정보&lt;br&gt;조회" style="ellipse;whiteSpace=wrap;html=1;" parent="1" vertex="1">
          <mxGeometry x="220" y="570" width="70" height="50" as="geometry" />
        </mxCell>
        <mxCell id="LULFfs4jDfS_0ZK98w6w-24" value="" style="endArrow=none;html=1;rounded=0;" parent="1" target="LULFfs4jDfS_0ZK98w6w-7" edge="1">
          <mxGeometry width="50" height="50" relative="1" as="geometry">
            <mxPoint x="100" y="270" as="sourcePoint" />
            <mxPoint x="420" y="440" as="targetPoint" />
          </mxGeometry>
        </mxCell>
        <mxCell id="LULFfs4jDfS_0ZK98w6w-25" value="user" style="edgeLabel;html=1;align=center;verticalAlign=middle;resizable=0;points=[];" parent="LULFfs4jDfS_0ZK98w6w-24" vertex="1" connectable="0">
          <mxGeometry x="0.037" y="-1" relative="1" as="geometry">
            <mxPoint y="1" as="offset" />
          </mxGeometry>
        </mxCell>
        <mxCell id="LULFfs4jDfS_0ZK98w6w-27" value="" style="endArrow=none;html=1;rounded=0;entryX=0;entryY=0.5;entryDx=0;entryDy=0;" parent="1" target="LULFfs4jDfS_0ZK98w6w-8" edge="1">
          <mxGeometry width="50" height="50" relative="1" as="geometry">
            <mxPoint x="100" y="530" as="sourcePoint" />
            <mxPoint x="230" y="417" as="targetPoint" />
          </mxGeometry>
        </mxCell>
        <mxCell id="LULFfs4jDfS_0ZK98w6w-28" value="user" style="edgeLabel;html=1;align=center;verticalAlign=middle;resizable=0;points=[];" parent="LULFfs4jDfS_0ZK98w6w-27" vertex="1" connectable="0">
          <mxGeometry x="0.037" y="-1" relative="1" as="geometry">
            <mxPoint y="1" as="offset" />
          </mxGeometry>
        </mxCell>
        <mxCell id="LULFfs4jDfS_0ZK98w6w-29" value="" style="endArrow=none;html=1;rounded=0;exitX=0.5;exitY=0.5;exitDx=0;exitDy=0;exitPerimeter=0;entryX=0;entryY=0.5;entryDx=0;entryDy=0;" parent="1" target="LULFfs4jDfS_0ZK98w6w-11" edge="1">
          <mxGeometry width="50" height="50" relative="1" as="geometry">
            <mxPoint x="100" y="530" as="sourcePoint" />
            <mxPoint x="235" y="530" as="targetPoint" />
          </mxGeometry>
        </mxCell>
        <mxCell id="LULFfs4jDfS_0ZK98w6w-30" value="user" style="edgeLabel;html=1;align=center;verticalAlign=middle;resizable=0;points=[];" parent="LULFfs4jDfS_0ZK98w6w-29" vertex="1" connectable="0">
          <mxGeometry x="0.037" y="-1" relative="1" as="geometry">
            <mxPoint y="1" as="offset" />
          </mxGeometry>
        </mxCell>
        <mxCell id="LULFfs4jDfS_0ZK98w6w-31" value="" style="endArrow=none;html=1;rounded=0;entryX=0;entryY=0.5;entryDx=0;entryDy=0;" parent="1" target="LULFfs4jDfS_0ZK98w6w-12" edge="1">
          <mxGeometry width="50" height="50" relative="1" as="geometry">
            <mxPoint x="100" y="530" as="sourcePoint" />
            <mxPoint x="235" y="577" as="targetPoint" />
          </mxGeometry>
        </mxCell>
        <mxCell id="LULFfs4jDfS_0ZK98w6w-32" value="user" style="edgeLabel;html=1;align=center;verticalAlign=middle;resizable=0;points=[];" parent="LULFfs4jDfS_0ZK98w6w-31" vertex="1" connectable="0">
          <mxGeometry x="0.037" y="-1" relative="1" as="geometry">
            <mxPoint y="1" as="offset" />
          </mxGeometry>
        </mxCell>
        <mxCell id="LULFfs4jDfS_0ZK98w6w-33" value="로그인" style="ellipse;whiteSpace=wrap;html=1;" parent="1" vertex="1">
          <mxGeometry x="394" y="440" width="70" height="50" as="geometry" />
        </mxCell>
        <mxCell id="LULFfs4jDfS_0ZK98w6w-34" value="" style="endArrow=none;dashed=1;html=1;rounded=0;entryX=0;entryY=0.5;entryDx=0;entryDy=0;exitX=1;exitY=0.5;exitDx=0;exitDy=0;" parent="1" source="LULFfs4jDfS_0ZK98w6w-8" edge="1">
          <mxGeometry width="50" height="50" relative="1" as="geometry">
            <mxPoint x="370" y="587.5" as="sourcePoint" />
            <mxPoint x="394" y="465" as="targetPoint" />
          </mxGeometry>
        </mxCell>
        <mxCell id="LULFfs4jDfS_0ZK98w6w-35" value="" style="endArrow=none;dashed=1;html=1;rounded=0;entryX=0;entryY=0.5;entryDx=0;entryDy=0;exitX=1;exitY=0.35;exitDx=0;exitDy=0;exitPerimeter=0;" parent="1" source="LULFfs4jDfS_0ZK98w6w-11" edge="1">
          <mxGeometry width="50" height="50" relative="1" as="geometry">
            <mxPoint x="300" y="445.5" as="sourcePoint" />
            <mxPoint x="394" y="465" as="targetPoint" />
          </mxGeometry>
        </mxCell>
        <mxCell id="LULFfs4jDfS_0ZK98w6w-36" value="" style="endArrow=none;dashed=1;html=1;rounded=0;entryX=0;entryY=0.5;entryDx=0;entryDy=0;exitX=1;exitY=0.5;exitDx=0;exitDy=0;" parent="1" source="LULFfs4jDfS_0ZK98w6w-12" edge="1">
          <mxGeometry width="50" height="50" relative="1" as="geometry">
            <mxPoint x="310" y="455.5" as="sourcePoint" />
            <mxPoint x="394" y="465" as="targetPoint" />
          </mxGeometry>
        </mxCell>
        <mxCell id="LULFfs4jDfS_0ZK98w6w-38" value="&amp;lt;&amp;lt;include&amp;gt;&amp;gt;" style="edgeLabel;html=1;align=center;verticalAlign=middle;resizable=0;points=[];" parent="1" vertex="1" connectable="0">
          <mxGeometry x="329.9977845193667" y="447.50448829143335" as="geometry" />
        </mxCell>
        <mxCell id="LULFfs4jDfS_0ZK98w6w-40" value="성격유형&lt;br&gt;소개" style="ellipse;whiteSpace=wrap;html=1;" parent="1" vertex="1">
          <mxGeometry x="220" y="265" width="70" height="50" as="geometry" />
        </mxCell>
        <mxCell id="LULFfs4jDfS_0ZK98w6w-41" value="" style="endArrow=none;html=1;rounded=0;entryX=0;entryY=0.5;entryDx=0;entryDy=0;" parent="1" target="LULFfs4jDfS_0ZK98w6w-40" edge="1">
          <mxGeometry width="50" height="50" relative="1" as="geometry">
            <mxPoint x="100" y="270" as="sourcePoint" />
            <mxPoint x="236" y="209" as="targetPoint" />
          </mxGeometry>
        </mxCell>
        <mxCell id="LULFfs4jDfS_0ZK98w6w-42" value="user" style="edgeLabel;html=1;align=center;verticalAlign=middle;resizable=0;points=[];" parent="LULFfs4jDfS_0ZK98w6w-41" vertex="1" connectable="0">
          <mxGeometry x="0.037" y="-1" relative="1" as="geometry">
            <mxPoint y="1" as="offset" />
          </mxGeometry>
        </mxCell>
        <mxCell id="LULFfs4jDfS_0ZK98w6w-43" value="" style="endArrow=none;html=1;rounded=0;entryX=0;entryY=0.5;entryDx=0;entryDy=0;" parent="1" target="LULFfs4jDfS_0ZK98w6w-40" edge="1">
          <mxGeometry width="50" height="50" relative="1" as="geometry">
            <mxPoint x="100" y="530" as="sourcePoint" />
            <mxPoint x="246" y="219" as="targetPoint" />
          </mxGeometry>
        </mxCell>
        <mxCell id="LULFfs4jDfS_0ZK98w6w-44" value="user" style="edgeLabel;html=1;align=center;verticalAlign=middle;resizable=0;points=[];" parent="LULFfs4jDfS_0ZK98w6w-43" vertex="1" connectable="0">
          <mxGeometry x="0.037" y="-1" relative="1" as="geometry">
            <mxPoint y="-6" as="offset" />
          </mxGeometry>
        </mxCell>
        <mxCell id="LULFfs4jDfS_0ZK98w6w-48" style="edgeStyle=orthogonalEdgeStyle;rounded=0;orthogonalLoop=1;jettySize=auto;html=1;" parent="1" source="LULFfs4jDfS_0ZK98w6w-45" target="LULFfs4jDfS_0ZK98w6w-40" edge="1">
          <mxGeometry relative="1" as="geometry" />
        </mxCell>
        <mxCell id="LULFfs4jDfS_0ZK98w6w-45" value="소개" style="ellipse;whiteSpace=wrap;html=1;" parent="1" vertex="1">
          <mxGeometry x="330" y="232.5" width="60" height="40" as="geometry" />
        </mxCell>
        <mxCell id="LULFfs4jDfS_0ZK98w6w-49" style="edgeStyle=orthogonalEdgeStyle;rounded=0;orthogonalLoop=1;jettySize=auto;html=1;" parent="1" source="LULFfs4jDfS_0ZK98w6w-46" target="LULFfs4jDfS_0ZK98w6w-40" edge="1">
          <mxGeometry relative="1" as="geometry" />
        </mxCell>
        <mxCell id="LULFfs4jDfS_0ZK98w6w-46" value="종류" style="ellipse;whiteSpace=wrap;html=1;" parent="1" vertex="1">
          <mxGeometry x="330" y="282.5" width="60" height="40" as="geometry" />
        </mxCell>
        <mxCell id="LULFfs4jDfS_0ZK98w6w-50" value="&amp;lt;&amp;lt;include&amp;gt;&amp;gt;" style="edgeLabel;html=1;align=center;verticalAlign=middle;resizable=0;points=[];" parent="1" vertex="1" connectable="0">
          <mxGeometry x="339.9977845193667" y="490.00448829143335" as="geometry" />
        </mxCell>
        <mxCell id="LULFfs4jDfS_0ZK98w6w-51" value="&amp;lt;&amp;lt;include&amp;gt;&amp;gt;" style="edgeLabel;html=1;align=center;verticalAlign=middle;resizable=0;points=[];" parent="1" vertex="1" connectable="0">
          <mxGeometry x="339.9977845193667" y="530.0044882914333" as="geometry" />
        </mxCell>
        <mxCell id="LULFfs4jDfS_0ZK98w6w-53" style="edgeStyle=orthogonalEdgeStyle;rounded=0;orthogonalLoop=1;jettySize=auto;html=1;dashed=1;" parent="1" source="LULFfs4jDfS_0ZK98w6w-52" target="LULFfs4jDfS_0ZK98w6w-40" edge="1">
          <mxGeometry relative="1" as="geometry">
            <Array as="points">
              <mxPoint x="360" y="220" />
              <mxPoint x="255" y="220" />
            </Array>
          </mxGeometry>
        </mxCell>
        <mxCell id="LULFfs4jDfS_0ZK98w6w-52" value="검사료&lt;br&gt;조회" style="ellipse;whiteSpace=wrap;html=1;" parent="1" vertex="1">
          <mxGeometry x="330" y="160" width="60" height="40" as="geometry" />
        </mxCell>
        <mxCell id="LULFfs4jDfS_0ZK98w6w-55" value="&amp;lt;&amp;lt;extend&amp;gt;&amp;gt;" style="edgeLabel;html=1;align=center;verticalAlign=middle;resizable=0;points=[];" parent="1" vertex="1" connectable="0">
          <mxGeometry x="309.9977845193667" y="210.00448829143335" as="geometry">
            <mxPoint x="1" y="11" as="offset" />
          </mxGeometry>
        </mxCell>
        <mxCell id="LULFfs4jDfS_0ZK98w6w-57" value="검사관리" style="ellipse;whiteSpace=wrap;html=1;" parent="1" vertex="1">
          <mxGeometry x="600" y="322.5" width="70" height="50" as="geometry" />
        </mxCell>
        <mxCell id="LULFfs4jDfS_0ZK98w6w-58" value="회원관리" style="ellipse;whiteSpace=wrap;html=1;" parent="1" vertex="1">
          <mxGeometry x="600" y="210" width="70" height="50" as="geometry" />
        </mxCell>
        <mxCell id="LULFfs4jDfS_0ZK98w6w-59" value="모니터링" style="ellipse;whiteSpace=wrap;html=1;" parent="1" vertex="1">
          <mxGeometry x="600" y="440" width="70" height="50" as="geometry" />
        </mxCell>
        <mxCell id="LULFfs4jDfS_0ZK98w6w-60" value="" style="endArrow=none;html=1;rounded=0;exitX=1;exitY=0.5;exitDx=0;exitDy=0;entryX=0.5;entryY=0.5;entryDx=0;entryDy=0;entryPerimeter=0;" parent="1" source="LULFfs4jDfS_0ZK98w6w-59" target="LULFfs4jDfS_0ZK98w6w-3" edge="1">
          <mxGeometry width="50" height="50" relative="1" as="geometry">
            <mxPoint x="560" y="500" as="sourcePoint" />
            <mxPoint x="680" y="565" as="targetPoint" />
          </mxGeometry>
        </mxCell>
        <mxCell id="LULFfs4jDfS_0ZK98w6w-61" value="user" style="edgeLabel;html=1;align=center;verticalAlign=middle;resizable=0;points=[];" parent="LULFfs4jDfS_0ZK98w6w-60" vertex="1" connectable="0">
          <mxGeometry x="0.037" y="-1" relative="1" as="geometry">
            <mxPoint y="1" as="offset" />
          </mxGeometry>
        </mxCell>
        <mxCell id="LULFfs4jDfS_0ZK98w6w-62" value="" style="endArrow=none;html=1;rounded=0;exitX=1;exitY=0.5;exitDx=0;exitDy=0;entryX=0.5;entryY=0.5;entryDx=0;entryDy=0;entryPerimeter=0;" parent="1" source="LULFfs4jDfS_0ZK98w6w-57" target="LULFfs4jDfS_0ZK98w6w-3" edge="1">
          <mxGeometry width="50" height="50" relative="1" as="geometry">
            <mxPoint x="670" y="485" as="sourcePoint" />
            <mxPoint x="750" y="390" as="targetPoint" />
          </mxGeometry>
        </mxCell>
        <mxCell id="LULFfs4jDfS_0ZK98w6w-63" value="user" style="edgeLabel;html=1;align=center;verticalAlign=middle;resizable=0;points=[];" parent="LULFfs4jDfS_0ZK98w6w-62" vertex="1" connectable="0">
          <mxGeometry x="0.037" y="-1" relative="1" as="geometry">
            <mxPoint y="1" as="offset" />
          </mxGeometry>
        </mxCell>
        <mxCell id="LULFfs4jDfS_0ZK98w6w-64" value="" style="endArrow=none;html=1;rounded=0;exitX=1;exitY=0.5;exitDx=0;exitDy=0;entryX=0.5;entryY=0.5;entryDx=0;entryDy=0;entryPerimeter=0;" parent="1" source="LULFfs4jDfS_0ZK98w6w-58" target="LULFfs4jDfS_0ZK98w6w-3" edge="1">
          <mxGeometry width="50" height="50" relative="1" as="geometry">
            <mxPoint x="680" y="495" as="sourcePoint" />
            <mxPoint x="770" y="414" as="targetPoint" />
          </mxGeometry>
        </mxCell>
        <mxCell id="LULFfs4jDfS_0ZK98w6w-65" value="user" style="edgeLabel;html=1;align=center;verticalAlign=middle;resizable=0;points=[];" parent="LULFfs4jDfS_0ZK98w6w-64" vertex="1" connectable="0">
          <mxGeometry x="0.037" y="-1" relative="1" as="geometry">
            <mxPoint y="1" as="offset" />
          </mxGeometry>
        </mxCell>
        <mxCell id="LULFfs4jDfS_0ZK98w6w-71" style="edgeStyle=orthogonalEdgeStyle;rounded=0;orthogonalLoop=1;jettySize=auto;html=1;" parent="1" source="LULFfs4jDfS_0ZK98w6w-66" target="LULFfs4jDfS_0ZK98w6w-58" edge="1">
          <mxGeometry relative="1" as="geometry">
            <Array as="points">
              <mxPoint x="580" y="180" />
              <mxPoint x="580" y="235" />
            </Array>
          </mxGeometry>
        </mxCell>
        <mxCell id="LULFfs4jDfS_0ZK98w6w-66" value="회원조회" style="ellipse;whiteSpace=wrap;html=1;" parent="1" vertex="1">
          <mxGeometry x="480" y="160" width="60" height="40" as="geometry" />
        </mxCell>
        <mxCell id="LULFfs4jDfS_0ZK98w6w-69" value="" style="edgeStyle=orthogonalEdgeStyle;rounded=0;orthogonalLoop=1;jettySize=auto;html=1;" parent="1" source="LULFfs4jDfS_0ZK98w6w-67" target="LULFfs4jDfS_0ZK98w6w-58" edge="1">
          <mxGeometry relative="1" as="geometry">
            <Array as="points">
              <mxPoint x="560" y="235" />
              <mxPoint x="560" y="235" />
            </Array>
          </mxGeometry>
        </mxCell>
        <mxCell id="LULFfs4jDfS_0ZK98w6w-67" value="회원수정" style="ellipse;whiteSpace=wrap;html=1;" parent="1" vertex="1">
          <mxGeometry x="480" y="212.5" width="60" height="40" as="geometry" />
        </mxCell>
        <mxCell id="LULFfs4jDfS_0ZK98w6w-72" style="edgeStyle=orthogonalEdgeStyle;rounded=0;orthogonalLoop=1;jettySize=auto;html=1;" parent="1" source="LULFfs4jDfS_0ZK98w6w-68" target="LULFfs4jDfS_0ZK98w6w-58" edge="1">
          <mxGeometry relative="1" as="geometry">
            <Array as="points">
              <mxPoint x="580" y="286" />
              <mxPoint x="580" y="235" />
            </Array>
          </mxGeometry>
        </mxCell>
        <mxCell id="LULFfs4jDfS_0ZK98w6w-68" value="회원삭제" style="ellipse;whiteSpace=wrap;html=1;" parent="1" vertex="1">
          <mxGeometry x="480" y="262.5" width="60" height="40" as="geometry" />
        </mxCell>
      </root>
    </mxGraphModel>
  </diagram>
</mxfile>
